<?xml version="1.0" standalone="no"?>
<!DOCTYPE svg PUBLIC "-//W3C//DTD SVG 20010904//EN"
 "http://www.w3.org/TR/2001/REC-SVG-20010904/DTD/svg10.dtd">
<svg version="1.0" xmlns="http://www.w3.org/2000/svg"
 width="900.000000pt" height="537.000000pt" viewBox="0 0 900.000000 537.000000"
 preserveAspectRatio="xMidYMid meet">
<metadata>
Created by potrace 1.10, written by Peter Selinger 2001-2011
</metadata>
<g transform="translate(0.000000,537.000000) scale(0.100000,-0.100000)"
fill="#000000" stroke="none">
<path d="M4300 5241 c-112 -8 -164 -15 -320 -48 -72 -15 -108 -24 -230 -59
-126 -37 -344 -129 -465 -198 -22 -12 -56 -31 -75 -42 -37 -20 -182 -114 -190
-124 -3 -3 -23 -17 -45 -32 -43 -30 -64 -47 -164 -136 -79 -70 -162 -151 -222
-217 -71 -78 -222 -284 -285 -386 -61 -102 -184 -349 -184 -371 0 -8 -4 -18
-9 -23 -5 -6 -14 -26 -19 -45 -6 -19 -22 -66 -35 -105 -33 -97 -77 -267 -84
-325 -2 -19 -11 -73 -20 -120 -24 -125 -24 -576 0 -715 33 -187 59 -305 89
-390 5 -16 13 -43 18 -60 5 -16 18 -55 30 -85 12 -30 25 -67 30 -81 4 -14 12
-34 18 -45 5 -10 39 -77 73 -149 56 -112 144 -258 229 -374 187 -258 487 -528
771 -694 57 -34 291 -149 349 -171 25 -10 60 -24 78 -32 18 -8 39 -14 47 -14
8 0 29 -6 47 -14 31 -13 70 -24 216 -60 148 -37 399 -66 572 -66 164 0 439 31
555 62 22 6 58 15 80 19 73 14 187 51 330 107 45 17 289 136 320 155 26 16 96
59 117 72 155 92 405 308 545 470 54 63 190 242 220 290 82 131 174 304 218
410 7 17 18 41 24 55 14 34 40 108 51 145 4 17 13 44 18 60 28 80 52 184 88
380 24 130 24 611 0 740 -34 180 -48 251 -62 295 -46 157 -88 281 -95 286 -5
3 -9 12 -9 19 0 8 -19 54 -41 102 -23 49 -45 97 -50 108 -5 11 -13 27 -18 35
-5 8 -38 62 -72 120 -165 278 -411 552 -665 741 -66 49 -201 141 -224 152 -8
4 -42 23 -75 42 -261 147 -539 242 -880 299 -106 18 -432 27 -595 17z m515
-797 c214 -37 406 -105 610 -218 215 -120 475 -369 621 -596 97 -152 178 -338
227 -525 83 -314 69 -716 -34 -1015 -31 -91 -87 -222 -110 -260 -5 -8 -13 -25
-19 -37 -41 -96 -188 -292 -309 -414 -80 -79 -287 -249 -305 -249 -3 0 -22
-11 -42 -25 -41 -28 -211 -111 -284 -140 -25 -9 -60 -23 -78 -31 -18 -8 -40
-14 -48 -14 -9 0 -37 -7 -63 -15 -154 -49 -400 -72 -596 -55 -165 14 -350 51
-433 86 -18 8 -39 14 -47 14 -7 0 -26 7 -42 15 -25 13 -104 49 -165 75 -24 10
-32 15 -106 63 -24 15 -45 27 -48 27 -18 0 -225 170 -304 249 -84 85 -220 249
-220 266 0 4 -11 21 -24 38 -13 18 -36 55 -50 82 -15 28 -31 57 -36 65 -20 34
-80 175 -109 260 -19 54 -42 140 -51 195 -4 28 -12 68 -18 90 -16 61 -23 306
-13 435 12 149 34 262 82 412 42 129 119 292 193 408 131 204 352 425 556 556
92 58 231 128 335 166 83 31 111 40 146 47 19 4 40 11 46 14 22 14 181 40 288
47 146 10 339 3 450 -16z"/>
<path d="M4315 4343 c-78 -5 -263 -49 -333 -79 -18 -8 -40 -14 -48 -14 -9 0
-28 -6 -42 -14 -15 -7 -72 -35 -127 -62 -55 -27 -140 -75 -190 -108 -100 -66
-225 -172 -225 -190 0 -6 68 -79 150 -161 115 -114 153 -147 164 -140 7 6 49
37 92 71 82 63 136 97 214 134 25 12 53 26 63 31 55 29 202 69 307 83 l85 11
0 220 0 220 -30 1 c-16 0 -52 -1 -80 -3z"/>
<path d="M4558 4344 c-10 -10 -10 -405 0 -421 4 -7 59 -19 124 -27 64 -8 121
-17 127 -20 5 -4 29 -10 53 -15 55 -12 111 -33 190 -71 68 -33 80 -40 148 -84
42 -27 53 -30 145 -31 l100 -2 108 106 c59 58 107 112 107 120 0 24 -127 129
-238 196 -9 6 -35 22 -57 36 -83 52 -259 127 -385 162 -142 40 -403 72 -422
51z"/>
<path d="M4561 3787 c-8 -10 -11 -74 -9 -223 l3 -209 25 -3 c108 -13 235 -61
327 -122 24 -17 50 -30 57 -30 20 0 201 190 199 208 -1 10 -5 38 -9 63 -4 33
-2 54 10 77 15 30 15 31 -12 54 -29 24 -168 95 -237 121 -65 24 -145 45 -220
57 -38 6 -82 13 -96 16 -15 3 -31 -1 -38 -9z"/>
<path d="M5626 3690 c-85 -87 -106 -114 -100 -128 5 -9 9 -53 9 -98 0 -73 3
-85 30 -125 33 -49 50 -79 106 -191 39 -77 70 -197 89 -340 7 -48 18 -92 25
-98 8 -7 83 -9 216 -8 l204 3 -3 105 c-1 58 -9 137 -18 175 -23 106 -55 219
-65 229 -5 6 -9 16 -9 24 0 16 -17 56 -63 152 -89 185 -251 410 -295 410 -11
0 -65 -47 -126 -110z"/>
<path d="M4315 3778 c-174 -32 -333 -102 -481 -214 -114 -86 -119 -64 58 -241
l156 -156 39 29 c79 60 181 110 272 133 l66 17 3 222 2 222 -32 -1 c-18 -1
-55 -6 -83 -11z"/>
<path d="M3223 3748 c-33 -38 -113 -146 -113 -154 0 -4 -7 -15 -15 -24 -8 -9
-26 -36 -39 -61 -75 -135 -139 -286 -170 -404 -36 -138 -45 -195 -48 -295 l-3
-105 209 -3 c155 -2 211 1 217 10 4 6 13 50 19 97 6 47 18 109 26 137 7 28 14
58 14 67 0 15 6 32 45 122 18 41 54 116 69 140 36 62 109 165 117 165 5 0 9
11 9 25 0 20 -33 59 -140 165 -78 77 -149 140 -159 140 -9 0 -27 -10 -38 -22z"/>
<path d="M3605 3328 c-21 -29 -45 -64 -55 -78 -24 -36 -110 -216 -110 -231 0
-8 -6 -31 -14 -54 -21 -60 -48 -222 -41 -245 6 -19 15 -20 159 -20 l152 0 37
50 c20 27 55 59 77 70 29 15 44 32 60 66 11 26 20 51 20 56 0 5 16 34 35 64
19 30 35 62 35 72 0 21 -284 302 -304 302 -8 0 -31 -24 -51 -52z"/>
<path d="M5153 3217 c-51 -53 -93 -103 -93 -112 0 -9 19 -46 43 -83 53 -83 71
-126 93 -222 9 -41 18 -81 20 -87 3 -10 55 -13 218 -13 192 0 215 2 220 17 8
19 -16 158 -40 243 -22 75 -41 122 -83 208 -71 145 -76 151 -121 132 -28 -11
-85 -10 -140 5 -22 5 -37 -6 -117 -88z"/>
<path d="M4355 3213 c-114 -43 -218 -106 -213 -130 5 -23 279 -293 284 -280 2
7 3 105 2 217 -3 228 0 221 -73 193z"/>
<path d="M4557 3223 c-11 -11 -8 -421 3 -428 6 -3 80 64 166 149 l155 155 -25
26 c-56 56 -271 126 -299 98z"/>
<path d="M4810 2869 c-74 -76 -136 -145 -138 -154 -3 -14 20 -15 205 -13 l208
3 3 33 c4 41 -31 149 -64 197 -13 20 -24 40 -24 45 0 10 -34 31 -47 29 -4 -1
-69 -64 -143 -140z"/>
<path d="M4034 2963 c-67 -101 -68 -124 -9 -182 24 -23 47 -51 50 -62 6 -17
17 -19 131 -19 151 0 151 -8 -5 147 -159 159 -145 149 -167 116z"/>
<path d="M3035 2580 l-200 -5 3 -95 c2 -89 14 -158 49 -290 28 -104 107 -294
156 -375 57 -94 145 -220 186 -265 l50 -55 157 157 157 156 -39 49 c-21 26
-42 50 -45 53 -9 9 -93 154 -112 195 -34 73 -45 100 -61 150 -8 28 -22 72 -31
99 -8 27 -15 59 -15 69 0 55 -23 148 -39 155 -9 4 -106 5 -216 2z"/>
<path d="M4852 2582 c-163 -2 -213 -5 -210 -15 2 -6 46 -54 99 -105 90 -87 97
-92 123 -82 36 13 99 13 131 -2 32 -14 45 1 74 88 24 69 27 110 9 115 -7 2
-109 3 -226 1z"/>
<path d="M5785 2578 c-7 -5 -18 -38 -23 -75 -6 -38 -13 -84 -16 -103 -11 -71
-51 -189 -93 -279 -39 -82 -79 -146 -151 -241 -36 -46 -65 -90 -66 -96 -1 -7
66 -80 148 -163 168 -170 150 -165 230 -71 45 52 176 241 176 254 0 3 13 27
28 53 15 26 43 84 61 128 18 44 39 95 47 113 8 18 14 40 14 50 0 9 6 34 14 57
26 74 46 189 48 280 l3 90 -203 5 c-112 3 -210 2 -217 -2z"/>
<path d="M3386 2565 c-12 -31 45 -261 89 -360 12 -27 25 -57 29 -65 4 -8 12
-24 19 -35 7 -11 27 -45 45 -75 17 -30 47 -72 66 -94 28 -32 36 -37 52 -28 27
15 294 286 294 299 0 6 -17 37 -39 69 -21 33 -49 82 -61 111 -17 40 -32 58
-64 77 -24 14 -59 45 -80 70 l-37 46 -154 0 c-128 0 -154 -2 -159 -15z"/>
<path d="M4071 2556 c-5 -12 -28 -39 -50 -58 -23 -19 -41 -42 -41 -50 0 -8 15
-44 34 -79 25 -46 40 -64 54 -64 21 0 264 230 276 260 5 13 -13 15 -130 15
-132 0 -135 0 -143 -24z"/>
<path d="M5216 2568 c-3 -7 -11 -35 -20 -62 -9 -27 -16 -55 -16 -63 0 -7 -14
-43 -31 -79 -28 -60 -31 -76 -33 -170 l-1 -105 114 -112 113 -112 45 50 c93
104 168 239 219 395 23 70 54 238 48 255 -5 13 -37 15 -220 15 -163 0 -216 -3
-218 -12z"/>
<path d="M4283 2351 c-68 -70 -123 -133 -123 -141 0 -29 183 -120 240 -120
l30 0 0 195 c0 150 -3 195 -12 194 -7 -1 -68 -59 -135 -128z"/>
<path d="M4550 2293 c0 -104 4 -193 8 -200 10 -16 116 -2 161 21 26 14 30 20
21 36 -15 27 -12 77 6 111 l15 30 -92 95 c-51 52 -99 94 -106 94 -10 0 -13
-39 -13 -187z"/>
<path d="M3912 1977 c-98 -98 -142 -149 -142 -165 0 -12 3 -22 8 -22 4 0 18
-10 32 -23 56 -51 194 -130 295 -170 83 -33 254 -77 299 -77 l26 0 0 225 c0
222 0 225 -21 225 -51 0 -198 60 -278 114 -29 20 -58 36 -65 36 -6 0 -75 -64
-154 -143z"/>
<path d="M4788 2020 c-31 -19 -143 -50 -179 -50 -20 0 -42 -6 -48 -14 -8 -9
-11 -77 -9 -222 l3 -209 55 -3 c135 -8 408 89 564 201 96 69 98 61 -35 192
l-117 115 -36 -15 c-44 -19 -83 -19 -116 0 -29 17 -58 18 -82 5z"/>
<path d="M3512 1576 c-84 -84 -152 -156 -152 -159 0 -11 140 -120 227 -178 85
-57 208 -122 293 -154 25 -10 59 -23 75 -30 93 -40 356 -95 449 -95 l26 0 0
220 0 220 -22 4 c-13 2 -47 9 -76 15 -30 6 -64 11 -76 11 -34 0 -202 58 -277
95 -96 48 -104 53 -211 133 -53 39 -99 72 -101 72 -2 0 -72 -69 -155 -154z"/>
<path d="M5275 1660 c-53 -42 -211 -140 -225 -140 -5 0 -21 -6 -37 -14 -79
-40 -191 -71 -338 -94 l-120 -18 0 -215 0 -214 30 -4 c65 -7 277 26 415 65
156 45 340 133 481 230 102 71 164 126 161 143 -5 23 -284 301 -302 300 -8 0
-37 -18 -65 -39z"/>
<path d="M154 5232 c-5 -4 -18 -18 -27 -32 -16 -22 -17 -78 -16 -640 0 -338 4
-635 9 -660 4 -25 11 -63 15 -85 8 -49 27 -100 68 -184 37 -73 136 -172 210
-209 74 -37 139 -103 177 -179 33 -66 34 -72 33 -181 -1 -62 -8 -177 -17 -255
-20 -187 -36 -350 -46 -467 -4 -52 -13 -144 -19 -205 -6 -60 -18 -180 -26
-265 -9 -85 -22 -216 -30 -290 -8 -74 -15 -157 -15 -185 0 -27 -5 -77 -10
-110 -6 -33 -15 -112 -19 -175 -12 -148 -28 -310 -48 -481 -15 -129 -15 -138
2 -195 37 -120 99 -194 202 -239 44 -20 72 -25 136 -25 69 0 89 4 141 30 71
35 90 51 131 105 56 74 65 105 65 228 0 62 -5 141 -11 177 -5 36 -14 117 -18
180 -5 63 -14 158 -20 210 -6 52 -17 165 -25 250 -9 85 -21 202 -27 260 -6 58
-15 152 -19 210 -4 58 -13 148 -19 200 -6 52 -17 165 -26 250 -8 85 -20 200
-25 255 -6 55 -15 154 -21 220 -5 66 -14 147 -19 180 -15 94 -12 246 5 291 38
97 100 170 174 207 58 29 142 110 172 167 35 67 48 106 70 204 18 83 19 132
19 742 l0 653 -25 26 c-44 43 -106 29 -131 -30 -11 -28 -14 -132 -14 -580 l0
-546 -26 -24 c-33 -30 -73 -32 -108 -4 l-26 20 0 565 0 566 -29 29 c-38 38
-82 39 -114 3 l-22 -26 -5 -563 -5 -563 -24 -26 c-35 -37 -81 -35 -115 5 l-26
31 0 553 0 553 -26 31 c-19 23 -34 31 -59 31 -25 0 -40 -8 -59 -31 l-26 -31 0
-558 0 -559 -27 -26 c-38 -35 -88 -31 -117 8 -21 28 -21 39 -26 594 l-5 565
-24 19 c-23 19 -67 25 -87 11z"/>
<path d="M8225 5217 c-108 -42 -228 -186 -329 -392 -26 -55 -52 -108 -57 -118
-13 -24 -73 -209 -92 -282 -46 -177 -51 -217 -51 -415 0 -169 3 -206 22 -275
12 -43 27 -84 32 -89 6 -6 10 -16 10 -24 0 -36 128 -193 175 -213 47 -21 139
-89 166 -123 10 -13 33 -53 50 -87 29 -58 31 -69 31 -168 0 -58 -8 -169 -16
-246 -22 -201 -46 -432 -50 -490 -6 -90 -27 -298 -42 -415 -8 -63 -14 -137
-14 -165 0 -27 -7 -93 -15 -145 -8 -52 -15 -117 -15 -145 0 -27 -6 -108 -15
-180 -8 -71 -21 -204 -30 -295 -9 -91 -22 -221 -30 -291 -20 -167 -20 -339 0
-365 8 -10 15 -26 15 -35 0 -23 95 -124 142 -152 66 -38 164 -53 235 -38 32 7
73 21 92 30 62 30 128 99 161 167 27 57 30 74 30 157 0 50 -6 148 -14 217 -24
194 -37 324 -46 459 -6 68 -14 149 -20 180 -5 30 -10 82 -10 115 0 34 -5 90
-11 126 -5 36 -14 117 -18 180 -5 63 -14 158 -20 210 -6 52 -18 167 -26 255
-8 88 -20 203 -26 255 -6 52 -15 147 -19 210 -5 63 -13 146 -20 184 -6 37 -12
125 -13 195 -2 125 -1 127 31 193 43 84 90 134 180 188 69 41 164 131 183 174
5 12 13 28 18 36 103 174 103 615 0 915 -6 17 -14 44 -19 60 -5 17 -18 55 -30
85 -12 30 -24 64 -27 74 -11 37 -93 188 -140 259 -59 89 -155 187 -208 211
-49 23 -110 28 -150 13z"/>
</g>
</svg>
